<svg xmlns="http://www.w3.org/2000/svg">

<symbol id="logotype" viewBox="0 0 34 38">
  <g><path d="M6.07 20.72v-2.26c6.68-.92 13.42-1.36 20.17-1.33 0 .6 0 1.21-.06 1.82a25.52 25.52 0 0 1 6-1.82A16.67 16.67 0 0 0 .19 20.39l5.88.33ZM27.24 24.23c-1.16 1.28-1.39 1.2-1.39 3.45v9.18A16.64 16.64 0 0 0 33.32 23a17.3 17.3 0 0 0-.32-3.1 33.1 33.1 0 0 0-5.76 4.33ZM6.36 25.72s-3.79-1.44-5.19-1.83A8.54 8.54 0 0 0 0 23.61a16.65 16.65 0 0 0 8.68 14L6.36 25.72Z" fill="#FDC305"/><path d="M26.29 17.12A89.8 89.8 0 0 0 24.89.65S24.75-.64 24 .41c-.59 1.25-1 2.58-1.2 3.94a70.34 70.34 0 0 0-12.77.34C9.24 2 7.85.75 7.18 1c-.67.25-.72 3.31-.72 3.31l-.33 14.1c6.68-.9 13.42-1.34 20.16-1.29Z" fill="#F06351"/><path d="M12.41 14c0-.09 1 .68 1.41.92.41.24.61.42.61.59 0 .17-.27.34-.63.34s-.91-.12-1-.27h1.23A8.34 8.34 0 0 1 12.41 14ZM19.89 14.11l-1.09 1.33c0 .06-.17.35.18.3.41-.06.82-.16 1.22-.29.11 0 .07-.19-.11-.17-.18.02-.69.05-1 .11l.84-1.26s.07-.13-.04-.02ZM16.75 20.2c.46-.2.85-.56 1.09-1 .28-.65 0-.91-.44-1-.6-.11-1.22.01-1.74.34-.39.36-.34.72-.05 1 .35.27.73.49 1.14.66Z" fill="#000"/><path d="M16.35 21.45c-.11.23-.27.43-.46.6-.28.23-.63.36-1 .38a2.15 2.15 0 0 1-1.47-.43 2.3 2.3 0 0 1-.53-.44c-.1-.11-.22-.2-.36-.26 0 0 .75 4.1 2.57 4.75 1.82.65 2.14-.75 2.2-1.13a5.61 5.61 0 0 0-.82-3.23c-.02-.31-.03-.11-.13-.24Z" fill="#F06351"/><path d="M14.71 22.59a3.44 3.44 0 0 1-2.36-1.47.14.14 0 0 1 .03-.15.14.14 0 0 1 .2 0c.5.7 1.26 1.16 2.11 1.3a2.1 2.1 0 0 0 1.63-1l.14-.19.1.21s.37.76 1 .8c.63.04 1.05-.41 1.61-1.28a.14.14 0 0 1 .2 0 .15.15 0 0 1 .05.2c-.64 1-1.27 1.44-1.88 1.4a1.55 1.55 0 0 1-1.12-.76 2.26 2.26 0 0 1-1.71.94Z" fill="#000"/><path d="M26.24 18.92a58.63 58.63 0 0 0-5.07 5.19A31.63 31.63 0 0 1 15.88 29c-.22-.53-1.62-1.51-1.62-1.51s-3.13-2.14-5.18-3.82a34.14 34.14 0 0 1-3.13-3l-2-.11c2.89 4.2 7.12 7.3 12 8.8.86-.14 3.27-1.86 5.07-3.26a58.13 58.13 0 0 0 5.94-5.89c.5-.59.89-1.27 1.14-2-1.1.39-1.86.71-1.86.71Z" fill="currentCullor"/></g><defs><clipPath id="a"><path fill="currentCullor" d="M0 0h33.32v37.61H0z"/></clipPath></defs>
</symbol>

<symbol id="logo-cat-energy" viewBox="0 0 101 18">
  <g><path d="M1.26 16.54A6.86 6.86 0 0 1 0 12.24v-6.4C-.1 4.3.3 2.77 1.19 1.47 2.05.46 3.39 0 5.37 0 7.35 0 8.61.46 9.4 1.3a5.42 5.42 0 0 1 1.19 3.78v1.54H6.72V4.85a3.7 3.7 0 0 0-.24-1.54 1.16 1.16 0 0 0-1.1-.62c-.56 0-.95.16-1.11.54a4.85 4.85 0 0 0-.24 1.7v8.22c-.04.56.07 1.12.32 1.62.15.38.55.54 1.1.54.56 0 .87-.16 1.03-.54.18-.52.26-1.07.24-1.62v-1.84h3.87v1.54a5.77 5.77 0 0 1-1.19 3.84c-.79.93-2.13 1.39-4.03 1.39-1.9-.08-3.32-.54-4.1-1.54ZM15.25.23h4.5l3.33 17.54h-3.64l-.63-3.7h-2.6l-.64 3.7h-3.72L15.25.23Zm3.24 11.54-.95-6.85-.94 6.85h1.9ZM25.84 3.15h-2.68V.23h9.4v2.85h-2.69v14.69h-4.03V3.15ZM39.75.23h6.96v1.85h-4.5v5.77h3.63v1.77H42.2v6.46h4.5v1.77h-7.03V.23h.08ZM48.76.23h1.74l5.14 11.62V.23h2.05v17.54h-1.58l-5.21-12v12h-2.14V.23ZM60.06.23h6.96v1.85h-4.5v5.77h3.63v1.77H62.5v6.46h4.5v1.77h-6.95V.23ZM69.07.23h3.64c1.43-.1 2.85.28 4.03 1.08C77.6 2 78 3.23 78 4.85c0 2.23-.7 3.61-2.21 4.07l2.53 8.77h-2.45L73.5 9.46h-1.98v8.23H69V.23h.08Zm3.48 7.54c.81.06 1.63-.15 2.3-.62.47-.38.7-1.15.7-2.3a4.85 4.85 0 0 0-.23-1.7c-.18-.39-.49-.71-.87-.92a3.69 3.69 0 0 0-1.74-.3h-1.1v5.76h.94v.08ZM81.16 16.46a7.61 7.61 0 0 1-1.1-4.46V6.15c-.02-1.11.11-2.22.4-3.3.26-.81.78-1.51 1.5-2 .88-.51 1.9-.75 2.92-.7 1.66 0 2.84.39 3.55 1.23a5.77 5.77 0 0 1 1.11 3.85v.62h-2.37V5.3c0-.65-.05-1.29-.16-1.93-.06-.4-.3-.76-.63-1a2.5 2.5 0 0 0-1.5-.38 2.42 2.42 0 0 0-1.58.46 1.75 1.75 0 0 0-.63 1.23c-.1.69-.16 1.38-.16 2.08v6.54c-.06 1 .1 2 .47 2.92.32.62.95.85 1.9.85a1.96 1.96 0 0 0 1.9-.93c.41-.97.6-2.02.55-3.07v-1.23h-2.3V9.08h4.59v8.69h-1.58l-.24-2c-.2.67-.64 1.25-1.22 1.66-.6.4-1.3.6-2.02.57a4.05 4.05 0 0 1-3.4-1.54ZM94.68 11.62 90.8.3h2.37l2.76 8.46L98.63.3H101l-3.87 11.3v6.16h-2.37v-6.15h-.08Z"/></g><defs><clipPath id="a"><path fill="currentCullor" d="M0 0h101v18H0z"/></clipPath></defs>
</symbol>

<symbol id="logo-menu" viewBox="0 0 24 18">
<path stroke="#000" stroke-width="1.5" d="M0 1.3h24M0 9.3h24M0 17.3h24"/>
</symbol>

<symbol id="vkontakte" viewBox="0 0 27 17">
<path d="M0 2.3C0 1.5.5 1 1.5 1h4c.3 0 .5.1.5.4l1.4 3.2A39.8 39.8 0 0 0 9.8 8s.2 0 .2-.2l.1-.3V3.2c0-.3 0-.5-.2-.6l-.8-.2c-.3 0-.5-.3-.5-.6v-.1C9 .6 10.1 0 11.8 0h1.5c.7 0 1.3.2 1.7.5.4.3.7.8.7 1.5v5.7l.3.1c.3 0 .5-.1.7-.4A17.7 17.7 0 0 0 20 2l.6-.7.8-.4H25.9c.4 0 .7.2.8.5l.2.3a2.4 2.4 0 0 1 0 .6v.1c0 .7-.4 1.5-.9 2.2-.5.8-1.1 1.7-2 2.6a27.6 27.6 0 0 0-1.6 2.3c0 .1 0 .3.2.5l3.9 4.6c.2.3.3.5.3.9s-.2.7-.5 1a2 2 0 0 1-1.1.3h-4.6l-.1.1c-.4 0-.8-.2-1.1-.5a241.3 241.3 0 0 1-3-3.3 38.5 38.5 0 0 0-.4 2.3l-.1.4c-.2.6-.6 1-1.1 1h-3c-1.5 0-3-.6-4.4-1.8-1.5-1.3-2.8-3-4-5A47.5 47.5 0 0 1 0 2.3ZM16 9c-.4 0-.7-.1-1-.3a.9.9 0 0 1-.5-.8V2c0-.3 0-.6-.2-.7-.2-.2-.5-.2-1-.2h-1.5c-.7 0-1.3.1-1.7.4.8.3 1.2 1 1.2 1.7v4.4c0 .4-.2.8-.6 1-.3.3-.6.5-1 .5-.6 0-1-.3-1.3-.8-1.3-2-2.4-3.8-3-5.6L5 2.1H1.2v.7l.6 1.4a33 33 0 0 0 4.8 8.6c1.8 2 3.5 3.1 5.2 3.1h2.9l.1-.4v-.3l.6-2.2.3-.6c.2-.2.5-.3.7-.3.5 0 .9.3 1.3.8l2.3 2.7c.2.2.3.3.5.3h4.4c.5 0 .8-.1.8-.4l-.1-.2-3.9-4.6c-.3-.3-.4-.7-.4-1 0-.5.1-.9.4-1.3L23 6.8l1.8-2.2c.5-.7.8-1.3 1-1.9V2.1h-4.2c-.3 0-.5.2-.6.4l-.2.5c-.4 1.1-1.6 3-3.5 5.3-.4.4-.8.6-1.3.6Z" fill="#666"/>
</symbol>

<symbol id="youtube" viewBox="0 0 24 19">
<path d="m15.9 8.8-5.3-3.5a.7.7 0 0 0-1 .5v7a.7.7 0 0 0 1 .6L16 9.9a.7.7 0 0 0 0-1.1Zm-5 2.8V7.1l3.4 2.2-3.4 2.3ZM23.4 3a2.4 2.4 0 0 0-1.5-1.6C18.2 0 12.3 0 12 0c-.3 0-6.2 0-10 1.4A2.4 2.4 0 0 0 .7 3C.3 4.1 0 6 0 9.3s.3 5.3.6 6.3a2.4 2.4 0 0 0 1.5 1.7c3.7 1.4 9.6 1.4 9.9 1.4.8 0 6.4 0 10-1.4a2.4 2.4 0 0 0 1.4-1.7c.3-1 .6-3 .6-6.3 0-3.2-.3-5.2-.6-6.3ZM22 15.3a1 1 0 0 1-.6.7C18 17.4 12 17.4 12 17.4c0 0-6 0-9.5-1.4a1 1 0 0 1-.6-.7c-.3-1-.6-2.8-.6-6 0-3 .3-5 .6-6a1 1 0 0 1 .6-.7C6 1.3 12 1.3 12 1.3c0 0 6 0 9.5 1.3a1 1 0 0 1 .6.8c.3 1 .6 2.8.6 6 0 3-.3 4.9-.6 6Z" fill="currentColor"/>
</symbol>

<symbol id="telegram" viewBox="0 0 20 18">
<path fill-rule="evenodd" clip-rule="evenodd" d="m19.5.2.2.6L17 16.5a.7.7 0 0 1-1 .5l-8-5.3a.7.7 0 0 1 0-1l2.5-3.2-4.3 2.9h-.7L.4 7.8a.7.7 0 0 1 0-1.2L18.8 0c.2 0 .5 0 .7.2ZM2.3 7.3 6 9.1l7.5-5a.7.7 0 0 1 .9 1l-4.8 6 6.4 4.2 2.3-13.6L2.3 7.3Z" fill="#666"/>
</symbol>

<symbol id="htmlacademy-logo" viewBox="0 0 27 34">
<path d="M13.6 0h-.1L0 1.4V26l13.5 8L27 26V1.4L13.6 0Zm11.6 25-11.7 7-11.7-7V15l11.7 6.8v1.3l-8-4.7v1.2l8 4.8v1.3l-8-4.8v1.2l8 4.9 8.1-4.9V17l3.6-2.1V25Zm0-11.5L22 15.3l-1.5 1-7-4.3v1.2l6 3.6-.2.1-.8.5-5-3v1.3l3.9 2.3-1 .6-3-1.7v1.2l2 1.2-2 1.1-11.6-6.8 11.6-7 11.8 6.9Zm0-1.3L13.4 5.3l-11.6 7V3l11.7-1.2L25.2 3v9.2Z"/>
</symbol>

<symbol id="cat-slim" viewBox="0 0 50 53">
<circle cx="25" cy="28" r="25" fill="#68B738"/>
<g clip-path="url(#clip0_94_6)">
<path d="M35.2034 0H35.008C34.6778 0.187081 34.415 0.473924 34.2571 0.819588C33.968 1.37738 33.7453 1.96735 33.5937 2.57732C33.5612 2.76073 33.4688 2.92811 33.331 3.05315C33.1932 3.17818 33.0179 3.25377 32.8326 3.26804C32.2658 3.36597 31.7288 3.59243 31.2626 3.93012C30.7965 4.26781 30.4135 4.7078 30.1429 5.21649C29.7708 5.87697 29.4526 6.5665 29.1914 7.27835C28.4611 9.17526 27.9006 11.134 27.2114 13.0464C26.8874 13.9175 26.872 13.9175 25.8949 13.9175C24.7274 13.9175 24.8097 13.7371 24.7943 15.0258C24.7943 15.433 24.9177 15.6392 25.3497 15.6186C25.4834 15.6186 25.684 15.5515 25.7354 15.7268C25.7869 15.9021 25.612 15.9794 25.5091 16.0825C24.8994 16.7029 24.1276 17.1388 23.2823 17.3402C22.3051 17.6031 21.3074 17.8093 20.356 18.1289C17.9131 18.9485 15.6554 20.0928 13.8966 22.0309C12.8681 23.2347 12.0445 24.6001 11.4589 26.0722C9.57143 30.5258 8.656 35.2165 7.94629 39.9536C7.612 42.1753 7.37543 44.4072 7.19543 46.6546C7.10286 47.7577 7 48.8763 7 50H24.1411C24.1696 49.7731 24.1283 49.5429 24.0229 49.3402C23.858 48.9289 23.5901 48.5672 23.2451 48.29C22.9 48.0128 22.4895 47.8295 22.0531 47.7577C21.6931 47.6753 21.652 47.567 21.8731 47.2835C22.2338 46.801 22.5103 46.2607 22.6909 45.6856C23.5291 43.2062 23.8531 40.6186 24.2594 38.0567C24.4889 36.0999 25.0894 34.2051 26.0286 32.4742C26.7611 31.2002 27.7382 30.0842 28.9034 29.1907C29.3303 28.866 29.3457 28.866 29.4177 29.4175C29.4691 29.7835 29.4794 30.1598 29.5051 30.5309C29.6595 32.9662 29.6285 35.4097 29.4126 37.8402C29.2184 39.7242 29.1926 41.6217 29.3354 43.5103C29.5399 45.7029 29.9304 47.8739 30.5029 50H37.3429C37.2536 49.442 36.9973 48.9243 36.6078 48.5156C36.2184 48.1069 35.7143 47.8264 35.1623 47.7113C34.5177 47.6087 33.8587 47.6438 33.2286 47.8144C32.92 47.8866 32.7914 47.8144 32.7657 47.4794C32.5529 44.7505 32.7261 42.0051 33.28 39.3247C33.966 36.2304 34.4912 33.1025 34.8537 29.9536C34.9887 28.6819 35.3881 27.4528 36.0263 26.3454C36.6383 25.2526 37.1731 24.1186 37.7749 23.0206C38.0138 22.6214 38.1575 22.1723 38.195 21.7083C38.2325 21.2443 38.1626 20.7779 37.9909 20.3454C37.852 19.9794 37.7183 19.6082 37.5486 19.2577C37.0343 18.2526 36.52 17.2577 36.0469 16.2423C35.7949 15.7268 35.8514 15.6649 36.412 15.6495C37.2503 15.6495 37.2503 15.6495 37.2657 14.8041C37.2657 14.6907 37.2657 14.5773 37.2657 14.4639C37.2657 14.1082 37.132 13.9124 36.7514 13.9485C36.4943 13.9485 36.2371 13.9485 35.9697 13.9485C35.6149 13.9485 35.512 13.799 35.5994 13.433C35.7729 12.838 36.1142 12.306 36.5823 11.9009C37.0503 11.4958 37.6252 11.2349 38.2377 11.1495C39.3772 11.0505 40.5251 11.1252 41.6423 11.3711C41.7712 11.4118 41.9109 11.4001 42.0312 11.3383C42.1515 11.2766 42.2427 11.1699 42.2851 11.0412C42.4909 10.5258 42.7171 10.0103 42.9486 9.49484C43.001 9.40339 43.0242 9.29801 43.015 9.19293C43.0058 9.08785 42.9647 8.98812 42.8971 8.90722C41.2514 6.81443 39.4669 4.86082 37.0343 3.60825C36.9168 3.55754 36.8138 3.47814 36.7347 3.3773C36.6557 3.27646 36.6031 3.15738 36.5817 3.03093C36.444 2.29408 36.225 1.57487 35.9286 0.886598C35.7895 0.519904 35.5349 0.20865 35.2034 0V0Z" fill="black"/>
</g>
<defs>
<clipPath id="clip0_94_6">
<rect width="36" height="50" fill="white" transform="translate(7)"/>
</clipPath>
</defs>
</symbol>

<symbol id="cat-pro" viewBox="0 0 61 60">
<circle cx="34.5" cy="25" r="25" fill="#68B738"/>
<g clip-path="url(#clip0_95_1)">
<path d="M61.55 13.9C62.1272 12.9815 62.8944 12.1973 63.8 11.6C64.3 11.25 64.6 11.25 64.9 11.9C65.3 12.85 65.65 13.85 65.35 14.9C65.2954 15.0781 65.2851 15.2668 65.3199 15.4497C65.3548 15.6327 65.4338 15.8044 65.55 15.95C65.85 16.35 66.1 16.75 66.35 17.1C66.6902 17.5319 66.9109 18.0456 66.9899 18.5897C67.0689 19.1339 67.0034 19.6892 66.8 20.2C66.6164 20.6959 66.5817 21.2346 66.7 21.75C66.7999 22.245 66.7999 22.755 66.7 23.25C66.6596 23.6207 66.5095 23.9709 66.2691 24.2559C66.0286 24.5409 65.7086 24.7478 65.35 24.85C64.7104 24.9717 64.1396 25.3284 63.75 25.85C63.7028 25.9268 63.6365 25.9901 63.5577 26.0339C63.4789 26.0777 63.3901 26.1005 63.3 26.1C62.7 26.2 61.2 24.85 61.2 24.25V23.95C61.25 22.15 61.15 22 59.5 21.25C59.1546 21.1282 58.8452 20.9219 58.6 20.65C58.3 20.25 57.9 20.3 57.45 20.45C57 20.6 56.75 20.9 56.8 21.4C56.9508 22.6104 57.0009 23.8313 56.95 25.05C56.9533 25.1891 56.9875 25.3257 57.05 25.45C58.6 27.7 59.2 30.35 59.95 32.9C60.55 34.85 61.65 35.9 63.65 36.05C63.97 36.0755 64.2876 36.1257 64.6 36.2C65.0109 36.266 65.3926 36.4538 65.6956 36.739C65.9987 37.0242 66.2092 37.3938 66.3 37.8C66.65 38.85 66.45 39.1 65.4 39.1H62.15C61.7292 39.1213 61.3167 38.9778 61 38.7C60.4939 38.2729 59.9191 37.9348 59.3 37.7C58.6155 37.4473 58.0231 36.9943 57.6 36.4C57.0143 35.5817 56.3439 34.8275 55.6 34.15C54.2 32.7 52.7 31.3 51.4 29.8C50.4103 28.7779 49.8395 27.4221 49.8 26C49.8 25.55 49.7 25.35 49.2 25.55C49.0503 25.645 48.8773 25.6969 48.7 25.7C47.3 25.7 46.6 26.55 46.1 27.8C45.65 28.85 45.05 29.85 44.5 30.9C44.1881 31.5572 44.0178 32.2727 44 33C44 34.2 44.3 34.6 45.4 35C46.1 35.25 46.75 35.5 47.1 36.2C47.5 37 47.4 37.2 46.55 37.25H43.15C42.954 37.2694 42.7568 37.2267 42.5864 37.1281C42.4159 37.0294 42.2807 36.8796 42.2 36.7L41.3 35.2C41.0347 34.8086 40.8648 34.3605 40.8041 33.8916C40.7433 33.4227 40.7932 32.9461 40.95 32.5C41.1664 31.6317 41.1835 30.7258 41 29.85C40.8739 29.24 40.8848 28.6097 41.0318 28.0045C41.1788 27.3993 41.4582 26.8342 41.85 26.35C42.15 26 42.15 25.85 41.65 25.75C39.6054 25.3157 37.6233 24.627 35.75 23.7C35.7367 23.7 35.724 23.6947 35.7146 23.6853C35.7052 23.676 35.7 23.6632 35.7 23.65C34.1 23.05 33.8 23.15 33.35 24.8C32.95 26.2 32.55 27.6 32.25 29.05C31.9 30.65 32.3 32.15 32.8 33.65C33 34.25 33.6 34.2 34.05 34.35C35.05 34.65 35.9 35.05 36.3 36.1C36.65 36.9 36.6 37 35.75 37C34.9 37 34.05 36.95 33.15 37C32.3905 37.0137 31.6493 36.7667 31.05 36.3C28.65 34.7 27.95 32.25 27.75 29.6C27.65 27.95 26.75 26.65 25.7 25.4C25.5 25.15 25.3 25.05 25 25.25C23.9267 25.8418 22.8062 26.3435 21.65 26.75C19.2371 27.602 17.1198 29.1292 15.55 31.15C14.9638 31.8875 14.5842 32.7675 14.45 33.7C14.3 34.6 14.55 35 15.45 35.25C16.35 35.5 16.8 36 16.9 36.95C16.95 37.35 16.8 37.55 16.4 37.55H12.35C12.2174 37.5406 12.0891 37.4993 11.9759 37.4297C11.8628 37.36 11.7681 37.2641 11.7 37.15C11.0719 36.3724 10.7358 35.3995 10.75 34.4C10.7237 32.6724 10.8745 30.9468 11.2 29.25C11.2667 28.7418 11.4564 28.2576 11.7527 27.8394C12.0489 27.4212 12.4427 27.0815 12.9 26.85C15.85 25.45 17.4 22.8 18.8 20.05C19.1 19.5 18.85 19.4 18.35 19.45C16.9506 19.6442 15.6248 20.1952 14.5 21.05C13.0271 22.1244 11.6396 23.3113 10.35 24.6C8.9748 25.9968 7.15133 26.8643 5.19998 27.05C1.54998 27.25 -0.150021 25.2 -2.12286e-05 21.9C0.03351 20.7748 0.457802 19.6964 1.19998 18.85C1.45799 18.5155 1.80985 18.2655 2.21061 18.1319C2.61138 17.9983 3.04287 17.9872 3.44998 18.1C4.19998 18.3 4.39998 18.7 4.09998 19.45C3.94998 19.75 3.74998 20 3.59998 20.3C3.38428 20.6065 3.21574 20.9435 3.09998 21.3C2.54998 22.8 3.29998 23.85 4.84998 24C6.49998 24.15 7.84998 23.45 9.09998 22.45C10.6059 21.2441 11.9503 19.8493 13.1 18.3C13.9596 17.1687 15.042 16.2256 16.2804 15.529C17.5188 14.8325 18.8868 14.3971 20.3 14.25C21.45 14.1 22.45 13.6 23.55 13.3C25.6072 12.6728 27.7495 12.3692 29.9 12.4C30.896 12.4415 31.8883 12.2533 32.8 11.85C35.25 10.85 37.8 10.85 40.35 11.35C42.35 11.75 44.35 12.25 46.3 12.75C47.4605 12.9662 48.6537 12.9321 49.8 12.65C51.9943 12.0937 54.2389 11.7587 56.5 11.65C57.9812 11.5779 59.4576 11.8697 60.8 12.5C61.8 12.95 61.8 12.95 61.55 13.9Z" fill="black"/>
</g>
<defs>
<clipPath id="clip0_95_1">
<rect width="67" height="28" fill="white" transform="translate(0 11)"/>
</clipPath>
</defs>
</symbol>

<symbol id="healthy" viewBox="0 0 61 60">
<rect x="0.5" width="60" height="60" fill="#68B738"/>
<g clip-path="url(#clip0_95_18)">
<path d="M43.3438 16.767C43.2434 16.317 42.8647 16 42.4325 16C42.4306 16 42.4288 16 42.4269 16C37.4891 16.033 25.4816 16.916 20.6337 24.38C18.1156 28.258 17.8991 33.293 19.9897 39.345C20.0056 39.392 20.0384 39.424 20.06 39.467C19.3128 41.44 19.0231 42.753 19.0156 42.79C18.9069 43.33 19.2303 43.862 19.7366 43.978C19.8022 43.993 19.8678 44 19.9334 44C20.3656 44 20.7547 43.679 20.8494 43.21C20.8691 43.108 23.2578 32.837 31.7028 26.832C32.1341 26.526 32.2503 25.905 31.9625 25.445C31.6747 24.985 31.0934 24.86 30.6622 25.168C25.8734 28.573 22.9241 33.176 21.1897 36.824C19.9484 32.246 20.2737 28.447 22.1759 25.519C25.9194 19.755 34.7984 18.365 40.1581 18.071C39.005 19.872 37.745 23.174 37.745 29C37.745 32.12 36.9153 34.522 35.2803 36.14C32.6591 38.731 28.4009 38.974 25.2866 38.724C24.7691 38.679 24.32 39.095 24.2806 39.646C24.2412 40.196 24.6284 40.676 25.1441 40.718C25.7675 40.769 26.4331 40.8 27.125 40.8C30.2956 40.8 33.9941 40.137 36.5544 37.606C38.5888 35.595 39.62 32.7 39.62 29.001C39.62 19.902 42.8356 17.905 42.8516 17.896C43.2416 17.687 43.4459 17.219 43.3438 16.767Z" fill="white"/>
</g>
<defs>
<clipPath id="clip0_95_18">
<rect width="30" height="32" fill="white" transform="translate(15.5 14)"/>
</clipPath>
</defs>
</symbol>

<symbol id="conveniently" viewBox="0 0 61 60">
<path fill="#68B738" d="M.5 0h60v60H.5z"/><g clip-path="url(#a)" fill="#fff"><path d="M36.3 31.5c-1.7 0-3.1 1.5-3.1 3.3 0 1.8 1.4 3.3 3 3.3 1.8 0 3.2-1.5 3.2-3.3 0-1.8-1.4-3.3-3.1-3.3Zm0 5c-1 0-1.6-.8-1.6-1.7 0-1 .7-1.7 1.6-1.7.9 0 1.6.7 1.6 1.7s-.7 1.7-1.6 1.7ZM27.1 13c-1.8 0-3.2 1.5-3.2 3.4s1.4 3.4 3.2 3.4c1.8 0 3.2-1.5 3.2-3.4S28.9 13 27 13Zm0 5.5c-1 0-2-1-2-2.1s1-2 2-2 2 .9 2 2-1 2-2 2ZM23.7 30.6c-1.3 0-2.3 1.1-2.3 2.5s1 2.5 2.3 2.5c1.3 0 2.4-1.1 2.4-2.5s-1-2.5-2.4-2.5Zm-.2 1.9c-.5 0 1.2 1.1 1.2.6 0-.5-1.7.4-1.2.4s1-.9 1-.4-.5-.6-1-.6ZM34 22.8s3-.9 6.2 1.5c.9.7 1.7 1.3 1.1 2-.3.4-.6.7-1.7-.4a7 7 0 0 0-5.6-1.5c-1.1.2-2 .6-3.6 2.2A8.3 8.3 0 0 1 24 29a8.1 8.1 0 0 1-5.2-2.6c-.3-.4-.3-.9-.1-1.1.1-.3.8-.5 1.2-.1.3.3 2 2 3.8 2 1.7.1 3.4.2 5.7-2 2.3-2.1 3.5-2.3 4.7-2.5Z"/><mask id="b"><path d="M44.1 39.8V21.2c0-.6-.3-.7-.5-.7h-.5c-.5 0-.5.6-.5.7v18.6c0 .4-.1 1.2-.8 2-.9.6-1.7.5-1.7.5H19.5c-.4 0-1-.2-1.6-1-.6-.8-.5-1.9-.5-1.9v-18c0-1-.7-.9-.7-.9h-.3c-.5 0-.5.6-.5.8v18.5c0 1.4.4 2.4 1.5 3.4 1.1.9 2.4.8 2.4.8h20.6c.8 0 2-.4 2.9-1.5.9-1.2.8-2.7.8-2.7Z"/></mask><path d="M44.1 39.8V21.2c0-.6-.3-.7-.5-.7h-.5c-.5 0-.5.6-.5.7v18.6c0 .4-.1 1.2-.8 2-.9.6-1.7.5-1.7.5H19.5c-.4 0-1-.2-1.6-1-.6-.8-.5-1.9-.5-1.9v-18c0-1-.7-.9-.7-.9h-.3c-.5 0-.5.6-.5.8v18.5c0 1.4.4 2.4 1.5 3.4 1.1.9 2.4.8 2.4.8h20.6c.8 0 2-.4 2.9-1.5.9-1.2.8-2.7.8-2.7Z"/><path d="M44.1 39.8h-20v.8l20-.8Zm-.5-19.3.7-20h-.7v20Zm-1 .7-20-.1v.1h20Zm0 .1h-20 20Zm0 18.5-20-.7 20 .7Zm-.8 2 13 15 .4-.3.4-.4-13.8-14.4Zm-1.7.5 2.3-19.8-1.1-.2H40v20Zm-20.6 0L16 62l1.1.2h1.2l1-19.9Zm-1.6-1L1.5 52.8 18 41.3Zm-.5-1.9 20 2.1v-2h-20Zm-.7-18.9v20h.8l-.8-20Zm-.8.8-20-.3V21.3h20Zm1.5 21.9-13 15.1 13-15.1Zm2.4.8V24H18.5l1.3 20Zm23.5-1.5L58.8 55 43.3 42.5ZM64 39.8V21.2h-40v18.6h40Zm0-18.6A20.6 20.6 0 0 0 44.3.5l-1.4 40a19.5 19.5 0 0 1-18.8-19.3h40ZM43.6.5h-.5v40h.5V.5Zm-.5 0a20.5 20.5 0 0 0-20.5 20.6l40 .3c0 .7 0 3.9-1.7 7.6a19.5 19.5 0 0 1-17.8 11.5V.5ZM22.6 21.2h40-40Zm0 0v.1h40-40Zm0 .1v10.5a8664.8 8664.8 0 0 1 0 7.3c0 .8 0 .4 0 0l40 1.5v-1.5a1362.3 1362.3 0 0 0 0-7.3V21.3h-40Zm0 17.8c0-1.4.4-7 5.3-11.8l27.7 28.8a22.7 22.7 0 0 0 7-15.5l-40-1.5Zm6.1-12.5a17.5 17.5 0 0 1 13.6-4.1A2078 2078 0 0 1 38 62.2a43 43 0 0 0 2.9.1 22 22 0 0 0 14-5.4l-26-30.3Zm11.4 15.7v-20H37a17380.8 17380.8 0 0 1-16.4 0c-1 0-.6 0 0 0l-2.2 40H40v-20ZM23 22.6a17.6 17.6 0 0 1 11.3 7.2l-32.7 23c5 7.1 12 8.8 14.6 9.2l6.8-39.4Zm11.3 7.2a17.3 17.3 0 0 1 3.1 11.7l-19.9-2a3223.4 3223.4 0 0 0-19.9-2.1 19.9 19.9 0 0 0 0 5c.3 2.2 1.1 6.3 4 10.4l32.7-23Zm3.2 9.6v-18h-40v18h40Zm0-18A20.7 20.7 0 0 0 16 .4l.7 20 .8 20a28.2 28.2 0 0 1-4-.3 19.3 19.3 0 0 1-16-18.9h40ZM16.7.4h-.3v40h.3V.5Zm-.3 0A20.5 20.5 0 0 0-4 21l40 .6c0 .7 0 4-1.8 7.7a19.4 19.4 0 0 1-17.7 11.2V.5ZM-4 21.3V39.9h40V21.2h-40Zm0 18.5c0 7 2.9 13.7 8.5 18.5l26-30.3A15.6 15.6 0 0 1 36 39.8h-40Zm8.5 18.5A23.6 23.6 0 0 0 20.9 64h.1l-1.2-20a2530.9 2530.9 0 0 1-1.3-20h.1a16 16 0 0 1 4.5.4c2 .4 4.7 1.3 7.3 3.6l-26 30.3ZM19.8 44v20H40.4l-.1-40H19.8v20Zm20.6 20c7.1 0 13.8-3.3 18.4-8.9l-31-25.3c2.7-3.3 7.1-5.8 12.5-5.8l.1 40Zm18.4-8.9a24 24 0 0 0 5.3-16l-20 .7-20 .8v-.1a17.1 17.1 0 0 1 .3-3.7 16 16 0 0 1 3.4-7l31 25.3Z" mask="url(#b)"/></g><defs><clipPath id="a"><path fill="#fff" transform="translate(15.5 13)" d="M0 0h29v31H0z"/></clipPath></defs></symbol>

<symbol id="tasty" viewBox="0 0 61 60">
<rect x="0.5" width="60" height="60" fill="#68B738"/>
<path fill-rule="evenodd" clip-rule="evenodd" d="M37.1173 15.0761C37.491 14.9214 37.9211 15.0069 38.2071 15.2929C39.1156 16.2014 40.3038 18.1706 41.2659 21.2108C42.2373 24.2804 43 28.5081 43 34C43 34.5523 42.5523 35 42 35H38.5V44C38.5 44.5523 38.0523 45 37.5 45C36.9477 45 36.5 44.5523 36.5 44V16C36.5 15.5956 36.7436 15.2309 37.1173 15.0761ZM38.5 33H40.9912C40.9053 28.1836 40.2051 24.4875 39.3591 21.8142C39.0807 20.9346 38.7885 20.1715 38.5 19.519V33Z" fill="white"/>
<path fill-rule="evenodd" clip-rule="evenodd" d="M24.5 15C25.0523 15 25.5 15.4477 25.5 16V44C25.5 44.5523 25.0523 45 24.5 45C23.9477 45 23.5 44.5523 23.5 44V16C23.5 15.4477 23.9477 15 24.5 15Z" fill="white"/>
<path fill-rule="evenodd" clip-rule="evenodd" d="M20 15C20.5523 15 21 15.4477 21 16V21.5C21 22.0569 21.192 22.8152 21.7009 23.4166C22.18 23.9828 23.0145 24.5 24.4999 24.5C25.0522 24.5 25.4999 24.9477 25.4999 25.5C25.4999 26.0523 25.0522 26.5 24.4999 26.5C22.4855 26.5 21.07 25.7672 20.1741 24.7084C19.308 23.6848 19 22.4431 19 21.5V16C19 15.4477 19.4477 15 20 15Z" fill="white"/>
<path fill-rule="evenodd" clip-rule="evenodd" d="M29 15C28.4477 15 28 15.4477 28 16V21.5C28 22.0569 27.808 22.8152 27.2991 23.4166C26.82 23.9828 25.9854 24.5 24.4999 24.5C23.9476 24.5 23.5001 24.9477 23.5001 25.5C23.5001 26.0523 23.9476 26.5 24.4999 26.5C26.5144 26.5 27.93 25.7672 28.8259 24.7084C29.692 23.6848 30 22.4431 30 21.5V16C30 15.4477 29.5523 15 29 15Z" fill="white"/>
</symbol>

<symbol id="fast" viewBox="0 0 61 60">
<path fill="#68B738" d="M.5 0h60v60H.5z"/>
  <circle cx="35.7" cy="24.3" fill="#fff" r="1.1"/>
  <circle cx="24.8" cy="24.3" fill="#fff" r="1.1"/>
  <circle cx="24.8" cy="37.4" fill="#fff" r="1.1"/>
  <circle cx="30.3" cy="39.5" fill="#fff" r="1.1"/>
  <circle cx="21.6" cy="30.8" fill="#fff" r="1.1"/>
  <circle cx="39" cy="30.8" fill="#fff" r="1.1"/>
  <circle cx="35.7" cy="37.4" fill="#fff" r="1.1"/>
  <mask id="a" fill="#fff">
    <path fill-rule="evenodd" clip-rule="evenodd" d="M35.4 42a1 1 0 0 1 1.2.3l1.9 1.8a.7.7 0 0 0 1-1L38 41.9c-.4-.5-.4-1.2 0-1.6 2.7-2.3 4.4-5.7 4.4-9.6 0-7-5.5-12.6-12.2-12.6A12.3 12.3 0 0 0 18 30.6a13 13 0 0 0 4.3 9.6 1 1 0 0 1 0 1.5L21 43.2a.7.7 0 1 0 1 1l1.9-2A1 1 0 0 1 25 42a11.9 11.9 0 0 0 10.4 0Zm-5.1-.2c6 0 10.8-5 10.8-11.2a11 11 0 0 0-10.8-11.2c-6 0-11 5-11 11.2a11 11 0 0 0 11 11.2Zm-.8-11.5v-7.4a.8.8 0 1 1 1.6 0v8.2c0 .5-.4.8-.8.8a.8.8 0 0 1-.8-.7v-.9Z"/>
  </mask>
  <path fill-rule="evenodd" clip-rule="evenodd" d="M35.4 42a1 1 0 0 1 1.2.3l1.9 1.8a.7.7 0 0 0 1-1L38 41.9c-.4-.5-.4-1.2 0-1.6 2.7-2.3 4.4-5.7 4.4-9.6 0-7-5.5-12.6-12.2-12.6A12.3 12.3 0 0 0 18 30.6a13 13 0 0 0 4.3 9.6 1 1 0 0 1 0 1.5L21 43.2a.7.7 0 1 0 1 1l1.9-2A1 1 0 0 1 25 42a11.9 11.9 0 0 0 10.4 0Zm-5.1-.2c6 0 10.8-5 10.8-11.2a11 11 0 0 0-10.8-11.2c-6 0-11 5-11 11.2a11 11 0 0 0 11 11.2Zm-.8-11.5v-7.4a.8.8 0 1 1 1.6 0v8.2c0 .5-.4.8-.8.8a.8.8 0 0 1-.8-.7v-.9Z" fill="#fff"/>
  <path d="m23.8 42.2 2.8 2.8-2.8-2.8ZM25 42l1.8-3.6L25 42Zm-3 2.1-3-2.8 2.9 2.8Zm-1-1 2.9 2.9-2.9-2.8Zm17.2-1.3-2.9 2.8 2.9-2.8Zm0-1.6-2.6-3 2.7 3Zm-15.8 0-2.7 3 2.7-3Zm0 1.5L19.6 39l2.9 2.8Zm17.1 1.5 3-2.8-3 2.8Zm-1 1 3-2.9-3 2.8Zm-1.8-2L33.8 45l2.8-2.7Zm-1.2-.1-1.7-3.6 1.7 3.6Zm-1.6 3 1.8 1.8 5.7-5.6-1.8-1.8-5.7 5.5Zm8.5-4.7L41 39l-5.8 5.6 1.4 1.4 5.7-5.6Zm-1.5 2.8c3.5-3 5.7-7.6 5.7-12.6h-8c0 2.7-1.2 5-3 6.6l5.3 6Zm5.7-12.6c0-9-7.2-16.6-16.2-16.6v8c4.4 0 8.2 3.7 8.2 8.6h8ZM30.3 14C21.2 14 14 21.6 14 30.6h8c0-4.9 3.8-8.6 8.3-8.6v-8ZM14 30.6c0 5 2.2 9.5 5.6 12.5l5.3-6a8.8 8.8 0 0 1-2.9-6.5h-8Zm5.5 8.3-1.4 1.5 5.7 5.6 1.4-1.5-5.7-5.6Zm5.3 8 1.8-2-5.7-5.5-1.9 2 5.8 5.5Zm-1.6-1.3a17 17 0 0 0 7 1.6v-8c-1.2 0-2.4-.3-3.4-.8l-3.6 7.2Zm7 1.6c2.5 0 4.9-.5 7-1.5l-3.5-7.2c-1 .5-2.2.7-3.4.7v8Zm0-1.4a15 15 0 0 0 15-15.2h-8a7 7 0 0 1-7 7.2v8Zm15-15.2a15 15 0 0 0-15-15.2v8a7 7 0 0 1 7 7.2h8Zm-15-15.2a15 15 0 0 0-14.8 15.2h8a7 7 0 0 1 6.9-7.2v-8ZM15.5 30.6a15 15 0 0 0 14.9 15.2v-8a7 7 0 0 1-7-7.2h-8Zm11.7-.3v.5h8v-.5h-8Zm0 .5v.3h8v-.3h-8Zm6.4.4v-.4h-8v.4h8Zm0-.4v-.5h-8v.5h8Zm0-.5v-3.8h-8v3.8h8Zm0-3.8v-3.6h-8v3.6h8Zm-6.4-3.6v3.6h8v-3.6h-8Zm0 3.6v3.8h8v-3.8h-8Zm3.2-8.3a4.8 4.8 0 0 0-4.8 4.7h8c0 1.8-1.4 3.3-3.2 3.3v-8Zm-3.2 13c0-1.8 1.4-3.3 3.2-3.3v8c2.6 0 4.8-2.1 4.8-4.8h-8ZM26.6 45a3 3 0 0 1-3.4.6l3.6-7.2a5 5 0 0 0-5.9 1l5.7 5.6Zm-8.5 2a4.7 4.7 0 0 0 6.7 0L19 41.2a3.3 3.3 0 0 1 4.8 0L18 47Zm0-6.6a4.7 4.7 0 0 0 0 6.5l5.7-5.6a3.3 3.3 0 0 1 0 4.7L18 40.4ZM41 39a3 3 0 0 1-.2 4.2l-5.3-6a5 5 0 0 0-.3 7.4L41 39ZM30.3 26.2a3.2 3.2 0 0 1-3.2-3.3h8c0-2.6-2.2-4.7-4.8-4.7v8Zm-10.7 17a3 3 0 0 1-.1-4.3l5.7 5.6a5 5 0 0 0-.3-7.3l-5.3 6Zm22.7 3.7a4.7 4.7 0 0 0 0-6.5L36.6 46a3.3 3.3 0 0 1 0-4.7l5.7 5.6Zm-6.7 0a4.7 4.7 0 0 0 6.7 0l-5.7-5.6a3.3 3.3 0 0 1 4.7 0L35.6 47Zm-5.3-19c1.8 0 3.2 1.5 3.2 3.3h-8c0 2.6 2.1 4.7 4.8 4.7v-8Zm9.2 11.6a5 5 0 0 0-5.8-1l3.5 7.2a3 3 0 0 1-3.4-.7l5.7-5.5Z" fill="#fff" mask="url(#a)"/>
  <path fill="#fff" d="M29.5 19v-4H31v4z"/>
  <rect x="22.5" y="15" width="15.5" height="1.5" rx=".8" fill="#fff"/>
</symbol>

<symbol id="logo-tablet" viewBox="0 0 61 51">


</symbol>

</svg>
